<svg width="52" height="50" viewBox="0 0 52 50" fill="none" xmlns="http://www.w3.org/2000/svg">
<path fill-rule="evenodd" clip-rule="evenodd" d="M2.87566 48.9998H13.8732L13.9 49H48.9398C49.9671 49 50.7998 48.1605 50.7998 47.125V35.875C50.7998 34.8395 49.9671 34.0001 48.9398 34.0001H37.728L46.2692 29.0909C47.1595 28.5791 47.4645 27.4468 46.9506 26.5609L41.3619 16.9269C41.1149 16.5011 40.7078 16.1904 40.2304 16.0631C39.7529 15.9359 39.2442 16.0026 38.8162 16.2486L28.4568 22.2017L34.3542 11.8082C34.5977 11.379 34.6637 10.8688 34.5378 10.39C34.4118 9.91117 34.1041 9.50296 33.6824 9.25524L24.1421 3.65037C23.2648 3.13499 22.1434 3.44095 21.6367 4.33393L16.0006 14.2666V2.84615C16.0006 1.82655 15.1611 1 14.1256 1H2.87566C1.84013 1 1.00066 1.82655 1.00066 2.84615V13.8704C1.00055 13.8802 1.00049 13.8901 1.00049 13.9C1.00049 13.9099 1.00055 13.9197 1.00066 13.9296V24.9749L1.00049 25.0002L1.00066 25.0256V36.0705L1.00049 36.1L1.00066 36.1296V47.1537C1.00066 48.1733 1.84013 48.9998 2.87566 48.9998ZM4.75065 16V23.2002H12.2506V16H4.75065ZM4.75065 11.8H12.2506V4.69229H4.75065V11.8ZM12.2506 26.8002H4.75065V34.0001H12.2506V26.8002ZM4.75065 38.2V45.3075H12.2506V38.2H4.75065ZM29.5109 34.4433C29.6841 34.2955 29.8846 34.179 30.1036 34.1026L42.7931 26.8091L39.0662 20.3844L24.8828 28.5351L24.854 28.5513L17.6391 41.2668L29.5109 34.4433ZM47.0799 37.75H31.2037L18.1551 45.25H47.0799V37.75ZM16.0006 36.6858V21.7351L23.8965 7.81993L30.2585 11.5576L16.0006 36.6858Z" fill="white"/>

</svg>
