<svg width="52" height="50" viewBox="0 0 52 50" fill="none" xmlns="http://www.w3.org/2000/svg">
<path fill-rule="evenodd" clip-rule="evenodd" d="M2.87566 48.9998H13.8732L13.9 49H48.9398C49.9671 49 50.7998 48.1605 50.7998 47.125V35.875C50.7998 34.8395 49.9671 34.0001 48.9398 34.0001H37.728L46.2692 29.0909C47.1595 28.5791 47.4645 27.4468 46.9506 26.5609L41.3619 16.9269C41.1149 16.5011 40.7078 16.1904 40.2304 16.0631C39.7529 15.9359 39.2442 16.0026 38.8162 16.2486L28.4568 22.2017L34.3542 11.8082C34.5977 11.379 34.6637 10.8688 34.5378 10.39C34.4118 9.91117 34.1041 9.50296 33.6824 9.25524L24.1421 3.65037C23.2648 3.13499 22.1434 3.44095 21.6367 4.33393L16.0006 14.2666V2.84615C16.0006 1.82655 15.1611 1 14.1256 1H2.87566C1.84013 1 1.00066 1.82655 1.00066 2.84615V13.8704C1.00055 13.8802 1.00049 13.8901 1.00049 13.9C1.00049 13.9099 1.00055 13.9197 1.00066 13.9296V24.9749L1.00049 25.0002L1.00066 25.0256V36.0705L1.00049 36.1L1.00066 36.1296V47.1537C1.00066 48.1733 1.84013 48.9998 2.87566 48.9998ZM4.75065 16V23.2002H12.2506V16H4.75065ZM4.75065 11.8H12.2506V4.69229H4.75065V11.8ZM12.2506 26.8002H4.75065V34.0001H12.2506V26.8002ZM4.75065 38.2V45.3075H12.2506V38.2H4.75065ZM29.5109 34.4433C29.6841 34.2955 29.8846 34.179 30.1036 34.1026L42.7931 26.8091L39.0662 20.3844L24.8828 28.5351L24.854 28.5513L17.6391 41.2668L29.5109 34.4433ZM47.0799 37.75H31.2037L18.1551 45.25H47.0799V37.75ZM16.0006 36.6858V21.7351L23.8965 7.81993L30.2585 11.5576L16.0006 36.6858Z" fill="white"/>
<path d="M13.8732 48.9998L13.8767 48.4998H13.8732V48.9998ZM13.9 49L13.8964 49.5H13.9V49ZM37.728 34.0001L37.4789 33.5666C37.2825 33.6794 37.1865 33.9102 37.2449 34.129C37.3033 34.3478 37.5015 34.5001 37.728 34.5001V34.0001ZM46.2692 29.0909L46.5183 29.5244L46.2692 29.0909ZM46.9506 26.5609L47.3831 26.3101L46.9506 26.5609ZM41.3619 16.9269L40.9294 17.1778L41.3619 16.9269ZM40.2304 16.0631L40.3591 15.58V15.58L40.2304 16.0631ZM38.8162 16.2486L39.0653 16.6821L38.8162 16.2486ZM28.4568 22.2017L28.0219 21.955C27.9107 22.151 27.9444 22.3973 28.1042 22.5563C28.264 22.7152 28.5105 22.7476 28.7059 22.6353L28.4568 22.2017ZM34.3542 11.8082L33.9193 11.5615V11.5615L34.3542 11.8082ZM34.5378 10.39L34.0542 10.5172L34.5378 10.39ZM33.6824 9.25524L33.4291 9.68635V9.68635L33.6824 9.25524ZM24.1421 3.65037L23.8888 4.08147L24.1421 3.65037ZM21.6367 4.33393L22.0716 4.58068V4.58068L21.6367 4.33393ZM16.0006 14.2666H15.5006C15.5006 14.4936 15.6535 14.6921 15.873 14.75C16.0925 14.8079 16.3234 14.7107 16.4355 14.5133L16.0006 14.2666ZM1.00066 13.8704L1.50066 13.8764V13.8704H1.00066ZM1.00066 13.9296H1.5007L1.50063 13.9236L1.00066 13.9296ZM1.00066 24.9749L1.50066 24.9783V24.9749H1.00066ZM1.00049 25.0002L0.500452 24.9967L0.5005 25.0037L1.00049 25.0002ZM1.00066 25.0256H1.50068L1.50065 25.0221L1.00066 25.0256ZM1.00066 36.0705L1.50066 36.0734V36.0705H1.00066ZM1.00049 36.1L0.500462 36.0971L0.500497 36.103L1.00049 36.1ZM1.00066 36.1296H1.50067L1.50066 36.1266L1.00066 36.1296ZM4.75065 23.2002H4.25065C4.25065 23.4764 4.47451 23.7002 4.75065 23.7002V23.2002ZM4.75065 16V15.5C4.47451 15.5 4.25065 15.7238 4.25065 16H4.75065ZM12.2506 23.2002V23.7002C12.5268 23.7002 12.7506 23.4764 12.7506 23.2002H12.2506ZM12.2506 16H12.7506C12.7506 15.7238 12.5268 15.5 12.2506 15.5V16ZM4.75065 11.8H4.25065C4.25065 12.0761 4.47451 12.3 4.75065 12.3V11.8ZM12.2506 11.8V12.3C12.5268 12.3 12.7506 12.0761 12.7506 11.8H12.2506ZM12.2506 4.69229H12.7506C12.7506 4.41615 12.5268 4.19229 12.2506 4.19229V4.69229ZM4.75065 4.69229V4.19229C4.47451 4.19229 4.25065 4.41615 4.25065 4.69229H4.75065ZM4.75065 26.8002V26.3002C4.47451 26.3002 4.25065 26.5241 4.25065 26.8002H4.75065ZM12.2506 26.8002H12.7506C12.7506 26.5241 12.5268 26.3002 12.2506 26.3002V26.8002ZM4.75065 34.0001H4.25065C4.25065 34.2762 4.47451 34.5001 4.75065 34.5001V34.0001ZM12.2506 34.0001V34.5001C12.5268 34.5001 12.7506 34.2762 12.7506 34.0001H12.2506ZM4.75065 45.3075H4.25065C4.25065 45.5837 4.47451 45.8075 4.75065 45.8075V45.3075ZM4.75065 38.2V37.7C4.47451 37.7 4.25065 37.9239 4.25065 38.2H4.75065ZM12.2506 45.3075V45.8075C12.5268 45.8075 12.7506 45.5837 12.7506 45.3075H12.2506ZM12.2506 38.2H12.7506C12.7506 37.9239 12.5268 37.7 12.2506 37.7V38.2ZM30.1036 34.1026L30.2682 34.5748C30.2975 34.5645 30.3258 34.5516 30.3527 34.5361L30.1036 34.1026ZM29.5109 34.4433L29.7601 34.8768C29.7868 34.8614 29.812 34.8436 29.8355 34.8236L29.5109 34.4433ZM42.7931 26.8091L43.0423 27.2425C43.1576 27.1763 43.2417 27.0669 43.2761 26.9384C43.3105 26.81 43.2924 26.6732 43.2256 26.5582L42.7931 26.8091ZM39.0662 20.3844L39.4987 20.1335C39.3605 19.8954 39.0558 19.8137 38.8171 19.9509L39.0662 20.3844ZM24.8828 28.5351L25.1281 28.9708L25.1319 28.9686L24.8828 28.5351ZM24.854 28.5513L24.6086 28.1157C24.5295 28.1602 24.464 28.2256 24.4191 28.3046L24.854 28.5513ZM17.6391 41.2668L17.2042 41.0201C17.093 41.2162 17.1267 41.4624 17.2866 41.6214C17.4464 41.7803 17.6928 41.8127 17.8883 41.7003L17.6391 41.2668ZM31.2037 37.75V37.25C31.1163 37.25 31.0304 37.273 30.9546 37.3165L31.2037 37.75ZM47.0799 37.75H47.5799C47.5799 37.4739 47.356 37.25 47.0799 37.25V37.75ZM18.1551 45.25L17.9059 44.8165C17.7096 44.9294 17.6136 45.1601 17.672 45.379C17.7304 45.5978 17.9286 45.75 18.1551 45.75V45.25ZM47.0799 45.25V45.75C47.356 45.75 47.5799 45.5262 47.5799 45.25H47.0799ZM16.0006 21.7351L15.5657 21.4883C15.523 21.5635 15.5006 21.6486 15.5006 21.7351H16.0006ZM16.0006 36.6858H15.5006C15.5006 36.9128 15.6535 37.1113 15.873 37.1692C16.0925 37.2272 16.3235 37.13 16.4355 36.9325L16.0006 36.6858ZM23.8965 7.81993L24.1498 7.38883C24.0343 7.32099 23.8965 7.30231 23.7671 7.33696C23.6378 7.37162 23.5277 7.45671 23.4617 7.57318L23.8965 7.81993ZM30.2585 11.5576L30.6934 11.8043C30.8282 11.5667 30.7474 11.2649 30.5118 11.1265L30.2585 11.5576ZM13.8732 48.4998H2.87566V49.4998H13.8732V48.4998ZM13.9036 48.5L13.8767 48.4998L13.8696 49.4998L13.8964 49.5L13.9036 48.5ZM48.9398 48.5H13.9V49.5H48.9398V48.5ZM50.2998 47.125C50.2998 47.8882 49.6872 48.5 48.9398 48.5V49.5C50.247 49.5 51.2998 48.4329 51.2998 47.125H50.2998ZM50.2998 35.875V47.125H51.2998V35.875H50.2998ZM48.9398 34.5001C49.6872 34.5001 50.2998 35.1119 50.2998 35.875H51.2998C51.2998 34.5672 50.247 33.5001 48.9398 33.5001V34.5001ZM37.728 34.5001H48.9398V33.5001H37.728V34.5001ZM46.02 28.6574L37.4789 33.5666L37.9772 34.4336L46.5183 29.5244L46.02 28.6574ZM46.5181 26.8118C46.8924 27.457 46.6714 28.283 46.02 28.6574L46.5183 29.5244C47.6476 28.8753 48.0366 27.4365 47.3831 26.3101L46.5181 26.8118ZM40.9294 17.1778L46.5181 26.8118L47.3831 26.3101L41.7944 16.676L40.9294 17.1778ZM40.1016 16.5463C40.4516 16.6395 40.7491 16.8671 40.9294 17.1778L41.7944 16.676C41.4806 16.1351 40.9641 15.7412 40.3591 15.58L40.1016 16.5463ZM39.0653 16.6821C39.3787 16.502 39.7516 16.453 40.1016 16.5463L40.3591 15.58C39.7542 15.4188 39.1097 15.5032 38.5671 15.815L39.0653 16.6821ZM28.7059 22.6353L39.0653 16.6821L38.5671 15.815L28.2077 21.7682L28.7059 22.6353ZM33.9193 11.5615L28.0219 21.955L28.8917 22.4485L34.789 12.055L33.9193 11.5615ZM34.0542 10.5172C34.1471 10.8703 34.0982 11.2462 33.9193 11.5615L34.789 12.055C35.0972 11.5118 35.1804 10.8674 35.0213 10.2628L34.0542 10.5172ZM33.4291 9.68635C33.7353 9.86624 33.9614 10.1643 34.0542 10.5172L35.0213 10.2628C34.8622 9.658 34.4728 9.13969 33.9357 8.82414L33.4291 9.68635ZM23.8888 4.08147L33.4291 9.68635L33.9357 8.82414L24.3954 3.21926L23.8888 4.08147ZM22.0716 4.58068C22.4427 3.92662 23.256 3.70967 23.8888 4.08147L24.3954 3.21926C23.2737 2.5603 21.8441 2.95528 21.2018 4.08717L22.0716 4.58068ZM16.4355 14.5133L22.0716 4.58068L21.2018 4.08717L15.5657 14.0198L16.4355 14.5133ZM15.5006 2.84615V14.2666H16.5006V2.84615H15.5006ZM14.1256 1.5C14.8923 1.5 15.5006 2.10997 15.5006 2.84615H16.5006C16.5006 1.54313 15.4299 0.5 14.1256 0.5V1.5ZM2.87566 1.5H14.1256V0.5H2.87566V1.5ZM1.50066 2.84615C1.50066 2.10997 2.10893 1.5 2.87566 1.5V0.5C1.57132 0.5 0.500665 1.54313 0.500665 2.84615H1.50066ZM1.50066 13.8704V2.84615H0.500665V13.8704H1.50066ZM1.50049 13.9C1.50049 13.8921 1.50054 13.8842 1.50063 13.8764L0.5007 13.8644C0.500559 13.8763 0.500488 13.8881 0.500488 13.9H1.50049ZM1.50063 13.9236C1.50054 13.9157 1.50049 13.9079 1.50049 13.9H0.500488C0.500488 13.9118 0.500559 13.9237 0.5007 13.9355L1.50063 13.9236ZM1.50066 24.9749V13.9296H0.500665V24.9749H1.50066ZM1.50048 25.0037L1.50065 24.9783L0.500677 24.9714L0.5005 24.9967L1.50048 25.0037ZM1.50065 25.0221L1.50048 24.9967L0.5005 25.0037L0.500677 25.0291L1.50065 25.0221ZM1.50066 36.0705V25.0256H0.500665V36.0705H1.50066ZM1.50048 36.103L1.50066 36.0734L0.500674 36.0675L0.500497 36.0971L1.50048 36.103ZM1.50066 36.1266L1.50048 36.0971L0.500497 36.103L0.500674 36.1326L1.50066 36.1266ZM1.50066 47.1537V36.1296H0.500665V47.1537H1.50066ZM2.87566 48.4998C2.10893 48.4998 1.50066 47.8898 1.50066 47.1537H0.500665C0.500665 48.4567 1.57132 49.4998 2.87566 49.4998V48.4998ZM5.25065 23.2002V16H4.25065V23.2002H5.25065ZM12.2506 22.7002H4.75065V23.7002H12.2506V22.7002ZM11.7506 16V23.2002H12.7506V16H11.7506ZM12.2506 15.5H4.75065V16.5H12.2506V15.5ZM4.75065 12.3H12.2506V11.3H4.75065V12.3ZM11.7506 4.69229V11.8H12.7506V4.69229H11.7506ZM4.75065 5.19229H12.2506V4.19229H4.75065V5.19229ZM5.25065 11.8V4.69229H4.25065V11.8H5.25065ZM4.75065 27.3002H12.2506V26.3002H4.75065V27.3002ZM5.25065 34.0001V26.8002H4.25065V34.0001H5.25065ZM12.2506 33.5001H4.75065V34.5001H12.2506V33.5001ZM11.7506 26.8002V34.0001H12.7506V26.8002H11.7506ZM5.25065 45.3075V38.2H4.25065V45.3075H5.25065ZM12.2506 44.8075H4.75065V45.8075H12.2506V44.8075ZM11.7506 38.2V45.3075H12.7506V38.2H11.7506ZM4.75065 38.7H12.2506V37.7H4.75065V38.7ZM29.9389 33.6305C29.6602 33.7277 29.4058 33.8757 29.1863 34.063L29.8355 34.8236C29.9625 34.7152 30.1089 34.6303 30.2682 34.5748L29.9389 33.6305ZM42.544 26.3756L29.8544 33.6691L30.3527 34.5361L43.0423 27.2425L42.544 26.3756ZM38.6337 20.6353L42.3606 27.0599L43.2256 26.5582L39.4987 20.1335L38.6337 20.6353ZM25.1319 28.9686L39.3153 20.8179L38.8171 19.9509L24.6337 28.1016L25.1319 28.9686ZM25.0993 28.987L25.1281 28.9708L24.6374 28.0995L24.6086 28.1157L25.0993 28.987ZM18.074 41.5136L25.2889 28.7981L24.4191 28.3046L17.2042 41.0201L18.074 41.5136ZM29.2617 34.0098L17.39 40.8333L17.8883 41.7003L29.7601 34.8768L29.2617 34.0098ZM31.2037 38.25H47.0799V37.25H31.2037V38.25ZM18.4042 45.6835L31.4529 38.1835L30.9546 37.3165L17.9059 44.8165L18.4042 45.6835ZM47.0799 44.75H18.1551V45.75H47.0799V44.75ZM46.5799 37.75V45.25H47.5799V37.75H46.5799ZM15.5006 21.7351V36.6858H16.5006V21.7351H15.5006ZM23.4617 7.57318L15.5657 21.4883L16.4355 21.9818L24.3314 8.06669L23.4617 7.57318ZM30.5118 11.1265L24.1498 7.38883L23.6433 8.25104L30.0053 11.9887L30.5118 11.1265ZM16.4355 36.9325L30.6934 11.8043L29.8237 11.3108L15.5657 36.439L16.4355 36.9325Z" fill="#054984"/>
</svg>
