<svg width="48" height="48" viewBox="0 0 48 48" fill="none" xmlns="http://www.w3.org/2000/svg">
<path d="M6.36235 19.353L5.25049 18.7406V20.01V23.9103C5.25049 24.375 5.43502 24.8133 5.69397 25.1976C5.95573 25.5862 6.32366 25.9654 6.76922 26.3284C7.66071 27.0546 8.93684 27.7755 10.5354 28.4141C13.7389 29.6939 18.3349 30.6827 24.0005 30.6827C29.6661 30.6827 34.2621 29.6939 37.4656 28.4141C39.0641 27.7755 40.3403 27.0546 41.2318 26.3284C41.6773 25.9654 42.0452 25.5862 42.307 25.1976C42.566 24.8133 42.7505 24.375 42.7505 23.9103V20.01V18.7406L41.6386 19.353C37.158 21.8212 30.6239 23.1603 24.0005 23.1603C17.3771 23.1603 10.843 21.8212 6.36235 19.353ZM6.36235 31.3979L5.25049 30.7854V32.0548V35.9552C5.25049 36.4198 5.43502 36.8581 5.69397 37.2425C5.95573 37.631 6.32366 38.0103 6.76922 38.3732C7.66071 39.0995 8.93684 39.8203 10.5354 40.4589C13.7389 41.7388 18.3349 42.7276 24.0005 42.7276C29.6661 42.7276 34.2621 41.7389 37.4656 40.459C39.0641 39.8204 40.3403 39.0996 41.2318 38.3733C41.6773 38.0104 42.0453 37.6311 42.307 37.2425C42.566 36.8581 42.7505 36.4198 42.7505 35.9552V32.0548V30.7854L41.6386 31.3979C37.158 33.866 30.6239 35.2052 24.0005 35.2052C17.3771 35.2052 10.843 33.866 6.36235 31.3979ZM0.750488 35.9552V11.8655C0.750488 8.36217 3.39767 5.58863 7.80223 3.65299C12.1787 1.72971 18.068 0.75 24.0005 0.75C29.933 0.75 35.8223 1.72971 40.1987 3.65299C44.6033 5.58863 47.2505 8.36217 47.2505 11.8655V35.9552C47.2505 39.4607 44.5822 42.2789 40.1661 44.2596C35.7801 46.2268 29.8918 47.25 24.0005 47.25C18.1092 47.25 12.2208 46.2268 7.83489 44.2596C3.4188 42.2789 0.750488 39.4607 0.750488 35.9552ZM42.7505 11.8655C42.7505 11.4008 42.566 10.9625 42.307 10.5781C42.0453 10.1895 41.6773 9.81027 41.2318 9.4473C40.3403 8.72105 39.0641 8.00023 37.4656 7.36161C34.2621 6.08179 29.6661 5.09306 24.0005 5.09306C18.3349 5.09306 13.7389 6.08179 10.5354 7.36161C8.93684 8.00023 7.66071 8.72105 6.76922 9.4473C6.32365 9.81027 5.95572 10.1895 5.69396 10.5781C5.43501 10.9625 5.25049 11.4008 5.25049 11.8655C5.25049 12.3302 5.43501 12.7685 5.69396 13.1529C5.95572 13.5414 6.32365 13.9207 6.76922 14.2837C7.66071 15.0099 8.93684 15.7307 10.5354 16.3694C13.7389 17.6492 18.3349 18.6379 24.0005 18.6379C29.6661 18.6379 34.2621 17.6492 37.4656 16.3694C39.0641 15.7307 40.3403 15.0099 41.2318 14.2837C41.6773 13.9207 42.0453 13.5414 42.307 13.1529C42.566 12.7685 42.7505 12.3302 42.7505 11.8655Z" fill="white" />
</svg>
