<svg width="155" height="50" viewBox="0 0 155 50" fill="none" xmlns="http://www.w3.org/2000/svg">
<path d="M148.685 50H5.40052C2.42332 50 0 47.34 0 44.0837V5.9075C0 2.65 2.42332 0 5.40052 0H148.685C151.661 0 154.17 2.65 154.17 5.9075V44.0837C154.17 47.34 151.661 50 148.685 50Z" fill="white"/>
<path d="M153.333 44.3216C153.333 46.9984 151.37 49.1666 148.942 49.1666H5.23066C2.80357 49.1666 0.833496 46.9984 0.833496 44.3216V5.68455C0.833496 3.00906 2.80357 0.833252 5.23066 0.833252H148.941C151.37 0.833252 153.332 3.00906 153.332 5.68455L153.333 44.3216Z" fill="#054884"/>
<path d="M39.8152 24.9916C39.7862 21.7805 42.451 20.2182 42.5728 20.1455C41.0637 17.9505 38.7245 17.6507 37.9025 17.6267C35.9379 17.4205 34.0322 18.7994 33.0314 18.7994C32.0106 18.7994 30.4695 17.6467 28.8085 17.6805C26.6711 17.7134 24.6715 18.9479 23.5748 20.8648C21.3115 24.7734 22.9995 30.5173 25.1679 33.6767C26.2526 35.224 27.52 36.9516 29.179 36.8908C30.8021 36.8241 31.4083 35.8586 33.367 35.8586C35.3076 35.8586 35.8769 36.8908 37.5689 36.852C39.3108 36.8241 40.4075 35.2977 41.4542 33.7365C42.7077 31.963 43.2111 30.2164 43.2311 30.1267C43.1901 30.1128 39.8481 28.8405 39.8152 24.9916Z" fill="white"/>
<path d="M36.6192 15.5484C37.4922 14.4594 38.0895 12.9778 37.9237 11.4744C36.6602 11.5302 35.0801 12.3462 34.1702 13.4112C33.3652 14.3498 32.646 15.8881 32.8318 17.3348C34.2511 17.4404 35.7083 16.6204 36.6192 15.5484Z" fill="white"/>
<path d="M63.304 36.6686H61.0357L59.7932 32.774H55.4744L54.2909 36.6686H52.0825L56.3614 23.4094H59.0042L63.304 36.6686ZM59.4187 31.14L58.295 27.6777C58.1762 27.324 57.9534 26.4911 57.6248 25.1799H57.5849C57.454 25.7438 57.2433 26.5768 56.9536 27.6777L55.85 31.14H59.4187Z" fill="white"/>
<path d="M74.308 31.7707C74.308 33.3968 73.8675 34.682 72.9866 35.6256C72.1975 36.4655 71.2177 36.8849 70.0481 36.8849C68.7856 36.8849 67.8787 36.4326 67.3264 35.5279H67.2865V40.5644H65.157V30.2553C65.157 29.2331 65.1301 28.1839 65.0781 27.1079H66.9509L67.0697 28.6233H67.1097C67.8198 27.4815 68.8975 26.9116 70.3438 26.9116C71.4744 26.9116 72.4183 27.357 73.1733 28.2487C73.9304 29.1414 74.308 30.3151 74.308 31.7707ZM72.1386 31.8485C72.1386 30.9179 71.9289 30.1507 71.5074 29.5469C71.0469 28.9172 70.4287 28.6024 69.6536 28.6024C69.1282 28.6024 68.6508 28.7778 68.2243 29.1235C67.7968 29.4722 67.5172 29.9275 67.3863 30.4914C67.3204 30.7545 67.2875 30.9697 67.2875 31.1391V32.7332C67.2875 33.4286 67.5012 34.0155 67.9287 34.4947C68.3562 34.974 68.9115 35.2131 69.5947 35.2131C70.3967 35.2131 71.0209 34.9042 71.4674 34.2885C71.9149 33.6717 72.1386 32.8587 72.1386 31.8485Z" fill="white"/>
<path d="M85.3314 31.7707C85.3314 33.3968 84.8909 34.682 84.009 35.6256C83.2209 36.4655 82.2411 36.8849 81.0715 36.8849C79.8091 36.8849 78.9022 36.4326 78.3508 35.5279H78.3109V40.5644H76.1814V30.2553C76.1814 29.2331 76.1545 28.1839 76.1025 27.1079H77.9753L78.0941 28.6233H78.1341C78.8432 27.4815 79.9209 26.9116 81.3682 26.9116C82.4978 26.9116 83.4417 27.357 84.1988 28.2487C84.9529 29.1414 85.3314 30.3151 85.3314 31.7707ZM83.162 31.8485C83.162 30.9179 82.9513 30.1507 82.5298 29.5469C82.0693 28.9172 81.4531 28.6024 80.677 28.6024C80.1507 28.6024 79.6742 28.7778 79.2467 29.1235C78.8193 29.4722 78.5406 29.9275 78.4097 30.4914C78.3448 30.7545 78.3109 30.9697 78.3109 31.1391V32.7332C78.3109 33.4286 78.5246 34.0155 78.9501 34.4947C79.3776 34.973 79.9329 35.2131 80.6181 35.2131C81.4201 35.2131 82.0444 34.9042 82.4908 34.2885C82.9383 33.6717 83.162 32.8587 83.162 31.8485Z" fill="white"/>
<path d="M97.6567 32.9503C97.6567 34.0781 97.2642 34.9957 96.4761 35.7041C95.6102 36.4783 94.4046 36.8649 92.8555 36.8649C91.4252 36.8649 90.2786 36.5899 89.4106 36.0389L89.9041 34.2684C90.8389 34.8323 91.8647 35.1153 92.9823 35.1153C93.7844 35.1153 94.4086 34.934 94.8571 34.5733C95.3035 34.2126 95.5263 33.7284 95.5263 33.1246C95.5263 32.5866 95.3425 32.1333 94.9739 31.7656C94.6074 31.398 93.9951 31.0562 93.1401 30.7404C90.813 29.8746 89.6504 28.6063 89.6504 26.9384C89.6504 25.8484 90.0579 24.9547 90.8739 24.2592C91.6869 23.5628 92.7716 23.2151 94.1279 23.2151C95.3375 23.2151 96.3423 23.4253 97.1443 23.8448L96.6119 25.5764C95.8628 25.1699 95.0159 24.9666 94.068 24.9666C93.3189 24.9666 92.7336 25.151 92.3141 25.5176C91.9596 25.8454 91.7818 26.2449 91.7818 26.7182C91.7818 27.2423 91.9845 27.6757 92.392 28.0164C92.7466 28.3313 93.3908 28.672 94.3257 29.0397C95.4693 29.499 96.3093 30.036 96.8497 30.6517C97.388 31.2655 97.6567 32.0336 97.6567 32.9503Z" fill="white"/>
<path d="M104.697 28.702H102.35V33.3439C102.35 34.5245 102.763 35.1144 103.592 35.1144C103.973 35.1144 104.288 35.0815 104.538 35.0157L104.597 36.6288C104.177 36.7852 103.625 36.8639 102.941 36.8639C102.1 36.8639 101.443 36.6079 100.968 36.0967C100.496 35.5846 100.258 34.7258 100.258 33.5192V28.7H98.8599V27.1058H100.258V25.3553L102.35 24.7256V27.1058H104.697V28.702Z" fill="white"/>
<path d="M115.287 31.8096C115.287 33.2792 114.866 34.4857 114.025 35.4293C113.143 36.4007 111.972 36.8849 110.513 36.8849C109.107 36.8849 107.987 36.4196 107.152 35.489C106.317 34.5585 105.899 33.3838 105.899 31.968C105.899 30.4864 106.329 29.2729 107.191 28.3294C108.051 27.3849 109.211 26.9126 110.671 26.9126C112.077 26.9126 113.209 27.3779 114.063 28.3095C114.88 29.2131 115.287 30.3798 115.287 31.8096ZM113.078 31.8783C113.078 30.9966 112.889 30.2404 112.506 29.6097C112.06 28.8465 111.422 28.4659 110.595 28.4659C109.739 28.4659 109.089 28.8475 108.642 29.6097C108.26 30.2413 108.071 31.0095 108.071 31.9182C108.071 32.7999 108.26 33.5561 108.642 34.1858C109.103 34.949 109.746 35.3296 110.576 35.3296C111.389 35.3296 112.027 34.9411 112.487 34.1659C112.88 33.5233 113.078 32.7591 113.078 31.8783Z" fill="white"/>
<path d="M122.209 28.976C121.998 28.9372 121.773 28.9172 121.538 28.9172C120.789 28.9172 120.209 29.1992 119.802 29.7641C119.447 30.2623 119.269 30.892 119.269 31.6522V36.6687H117.141L117.161 30.1188C117.161 29.0169 117.134 28.0136 117.081 27.1089H118.936L119.014 28.9382H119.073C119.297 28.3095 119.652 27.8033 120.137 27.4237C120.612 27.082 121.124 26.9116 121.677 26.9116C121.873 26.9116 122.051 26.9256 122.209 26.9505V28.976Z" fill="white"/>
<path d="M131.733 31.4358C131.733 31.8164 131.708 32.1373 131.655 32.3993H125.266C125.291 33.3438 125.6 34.0662 126.193 34.5643C126.732 35.0097 127.428 35.2329 128.283 35.2329C129.229 35.2329 130.092 35.0824 130.868 34.7805L131.201 36.2551C130.294 36.6497 129.224 36.8459 127.988 36.8459C126.502 36.8459 125.335 36.4095 124.486 35.5377C123.639 34.666 123.215 33.4953 123.215 32.0267C123.215 30.585 123.609 29.3844 124.399 28.4269C125.226 27.4047 126.344 26.8936 127.75 26.8936C129.132 26.8936 130.177 27.4047 130.888 28.4269C131.45 29.2389 131.733 30.2432 131.733 31.4358ZM129.702 30.8849C129.716 30.2552 129.577 29.7112 129.289 29.2519C128.92 28.661 128.354 28.3661 127.592 28.3661C126.895 28.3661 126.329 28.6541 125.897 29.2319C125.542 29.6913 125.331 30.2422 125.266 30.8839H129.702V30.8849Z" fill="white"/>
<path d="M53.9525 18.3333L52.5283 12.3681H53.7612L54.6605 16.4656L55.751 12.3681H57.1833L58.229 16.5347L59.1445 12.3681H60.3571L58.9085 18.3333H57.6309L56.4427 13.8736L55.2586 18.3333H53.9525Z" fill="white"/>
<path d="M61.3089 18.3333V12.3681H65.7319V13.3772H62.5133V14.6996H65.5081V15.7047H62.5133V17.3282H65.8459V18.3333H61.3089Z" fill="white"/>
<path d="M69.8491 12.3681H72.0505C72.5469 12.3681 72.9253 12.4061 73.1857 12.482C73.5356 12.5851 73.8354 12.7682 74.085 13.0313C74.3345 13.2945 74.5244 13.6173 74.6546 13.9998C74.7848 14.3795 74.8499 14.8488 74.8499 15.4076C74.8499 15.8986 74.7889 16.3218 74.6668 16.6772C74.5176 17.1112 74.3047 17.4625 74.028 17.731C73.8191 17.9345 73.537 18.0932 73.1816 18.2071C72.9158 18.2912 72.5604 18.3333 72.1156 18.3333H69.8491V12.3681ZM71.0535 13.3772V17.3282H71.9528C72.2892 17.3282 72.532 17.3092 72.6812 17.2712C72.8765 17.2224 73.0379 17.1397 73.1654 17.023C73.2956 16.9064 73.4014 16.7151 73.4827 16.4493C73.5641 16.1807 73.6048 15.8159 73.6048 15.3547C73.6048 14.8936 73.5641 14.5396 73.4827 14.2927C73.4014 14.0459 73.2874 13.8533 73.141 13.7149C72.9945 13.5766 72.8086 13.483 72.5835 13.4342C72.4153 13.3962 72.0857 13.3772 71.5947 13.3772H71.0535Z" fill="white"/>
<path d="M76.2087 18.3333V12.3681H80.6317V13.3772H77.4131V14.6996H80.4079V15.7047H77.4131V17.3282H80.7456V18.3333H76.2087Z" fill="white"/>
<path d="M83.6221 18.3333L81.4899 12.3681H82.7961L84.3057 16.783L85.7664 12.3681H87.0441L84.9079 18.3333H83.6221Z" fill="white"/>
<path d="M87.9919 18.3333V12.3681H92.4149V13.3772H89.1963V14.6996H92.1911V15.7047H89.1963V17.3282H92.5288V18.3333H87.9919Z" fill="white"/>
<path d="M93.916 18.3333V12.4169H95.1204V17.3282H98.1152V18.3333H93.916Z" fill="white"/>
<path d="M99.0671 15.3873C99.0671 14.7796 99.1579 14.2697 99.3397 13.8573C99.4753 13.5535 99.6598 13.2809 99.8931 13.0395C100.129 12.798 100.387 12.619 100.666 12.5024C101.038 12.345 101.466 12.2664 101.952 12.2664C102.831 12.2664 103.533 12.539 104.06 13.0842C104.589 13.6295 104.853 14.3877 104.853 15.3588C104.853 16.3218 104.591 17.0759 104.068 17.6212C103.544 18.1637 102.844 18.435 101.968 18.435C101.081 18.435 100.376 18.1651 99.8524 17.6252C99.3288 17.0827 99.0671 16.3367 99.0671 15.3873ZM100.308 15.3466C100.308 16.0221 100.464 16.5347 100.776 16.8847C101.088 17.2319 101.484 17.4055 101.964 17.4055C102.444 17.4055 102.838 17.2333 103.144 16.8888C103.453 16.5415 103.608 16.0221 103.608 15.3303C103.608 14.6467 103.458 14.1367 103.156 13.8004C102.858 13.464 102.461 13.2958 101.964 13.2958C101.468 13.2958 101.068 13.4667 100.764 13.8085C100.46 14.1476 100.308 14.6603 100.308 15.3466Z" fill="white"/>
<path d="M106.131 18.3333V12.3681H108.063C108.796 12.3681 109.273 12.3979 109.496 12.4576C109.837 12.5471 110.124 12.7424 110.354 13.0435C110.585 13.3419 110.7 13.7285 110.7 14.2032C110.7 14.5694 110.634 14.8773 110.501 15.1269C110.368 15.3764 110.198 15.5731 109.992 15.7169C109.789 15.8579 109.581 15.9515 109.369 15.9976C109.082 16.0546 108.666 16.0831 108.12 16.0831H107.335V18.3333H106.131ZM107.335 13.3772V15.0699H107.994C108.469 15.0699 108.786 15.0387 108.946 14.9763C109.106 14.9139 109.231 14.8163 109.321 14.6833C109.413 14.5504 109.459 14.3958 109.459 14.2195C109.459 14.0025 109.395 13.8234 109.268 13.6824C109.14 13.5413 108.979 13.4532 108.784 13.4179C108.64 13.3908 108.351 13.3772 107.917 13.3772H107.335Z" fill="white"/>
<path d="M114.528 18.3333V12.3681H118.618V13.3772H115.733V14.7891H118.223V15.7983H115.733V18.3333H114.528Z" fill="white"/>
<path d="M119.704 15.3873C119.704 14.7796 119.795 14.2697 119.976 13.8573C120.112 13.5535 120.297 13.2809 120.53 13.0395C120.766 12.798 121.023 12.619 121.303 12.5024C121.675 12.345 122.103 12.2664 122.589 12.2664C123.468 12.2664 124.17 12.539 124.696 13.0842C125.225 13.6295 125.49 14.3877 125.49 15.3588C125.49 16.3218 125.228 17.0759 124.705 17.6212C124.181 18.1637 123.481 18.435 122.605 18.435C121.718 18.435 121.013 18.1651 120.489 17.6252C119.966 17.0827 119.704 16.3367 119.704 15.3873ZM120.945 15.3466C120.945 16.0221 121.101 16.5347 121.413 16.8847C121.725 17.2319 122.121 17.4055 122.601 17.4055C123.081 17.4055 123.474 17.2333 123.781 16.8888C124.09 16.5415 124.245 16.0221 124.245 15.3303C124.245 14.6467 124.094 14.1367 123.793 13.8004C123.495 13.464 123.097 13.2958 122.601 13.2958C122.104 13.2958 121.704 13.4667 121.401 13.8085C121.097 14.1476 120.945 14.6603 120.945 15.3466Z" fill="white"/>
<path d="M126.771 18.3333V12.3681H129.306C129.944 12.3681 130.406 12.4223 130.694 12.5308C130.984 12.6366 131.216 12.8265 131.39 13.1005C131.563 13.3745 131.65 13.6878 131.65 14.0404C131.65 14.488 131.519 14.8583 131.255 15.1513C130.992 15.4415 130.599 15.6246 130.075 15.7006C130.336 15.8525 130.55 16.0193 130.718 16.2011C130.889 16.3828 131.118 16.7056 131.406 17.1695L132.134 18.3333H130.694L129.823 17.0352C129.514 16.5714 129.302 16.2798 129.188 16.1604C129.074 16.0383 128.954 15.9556 128.826 15.9122C128.699 15.8661 128.497 15.843 128.22 15.843H127.976V18.3333H126.771ZM127.976 14.8909H128.867C129.445 14.8909 129.805 14.8665 129.949 14.8176C130.093 14.7688 130.206 14.6847 130.287 14.5653C130.368 14.446 130.409 14.2968 130.409 14.1178C130.409 13.917 130.355 13.7556 130.246 13.6335C130.14 13.5088 129.99 13.4301 129.795 13.3975C129.697 13.384 129.404 13.3772 128.916 13.3772H127.976V14.8909Z" fill="white"/>
</svg>
