<svg width="48" height="48" viewBox="0 0 48 48" fill="none" xmlns="http://www.w3.org/2000/svg">
<path fill-rule="evenodd" clip-rule="evenodd" d="M0.000488281 1.7777C0.000488281 0.795905 0.796393 0 1.77819 0H19.5552C20.537 0 21.3329 0.795905 21.3329 1.7777V19.5547C21.3329 20.5365 20.537 21.3324 19.5552 21.3324H1.77819C0.796393 21.3324 0.000488281 20.5365 0.000488281 19.5547V1.7777ZM3.5559 3.55541V17.777H17.7775V3.55541H3.5559Z" fill="white"/>
<path fill-rule="evenodd" clip-rule="evenodd" d="M0.00292969 28.4453C0.00292969 27.4635 0.798835 26.6676 1.78063 26.6676H19.5577C20.5395 26.6676 21.3354 27.4635 21.3354 28.4453V46.2223C21.3354 47.2041 20.5395 48 19.5577 48H1.78063C0.798835 48 0.00292969 47.2041 0.00292969 46.2223V28.4453ZM3.55834 30.223V44.4446H17.78V30.223H3.55834Z" fill="white"/>
<path fill-rule="evenodd" clip-rule="evenodd" d="M26.668 28.4453C26.668 27.4635 27.4639 26.6676 28.4457 26.6676H46.2227C47.2045 26.6676 48.0004 27.4635 48.0004 28.4453V46.2223C48.0004 47.2041 47.2045 48 46.2227 48H28.4457C27.4639 48 26.668 47.2041 26.668 46.2223V28.4453ZM30.2234 30.223V44.4446H44.445V30.223H30.2234Z" fill="white"/>
<path fill-rule="evenodd" clip-rule="evenodd" d="M26.668 1.7799C26.668 0.798102 27.4639 0.00219727 28.4457 0.00219727H46.2227C47.2045 0.00219727 48.0004 0.798102 48.0004 1.7799V19.5569C48.0004 20.5387 47.2045 21.3346 46.2227 21.3346H28.4457C27.4639 21.3346 26.668 20.5387 26.668 19.5569V1.7799ZM30.2234 3.5576V17.7792H44.445V3.5576H30.2234Z" fill="white"/>
</svg>
