<svg width="20" height="17" viewBox="0 0 20 17" fill="none" xmlns="http://www.w3.org/2000/svg">
<path fill-rule="evenodd" clip-rule="evenodd" d="M0 1.5C0 0.67158 0.6396 0 1.42857 0H18.5714C19.3604 0 20 0.67158 20 1.5C20 2.32842 19.3604 3 18.5714 3H1.42857C0.6396 3 0 2.32842 0 1.5Z" fill="white"/>
<path fill-rule="evenodd" clip-rule="evenodd" d="M0 8.5C0 7.67158 0.6396 7 1.42857 7H18.5714C19.3604 7 20 7.67158 20 8.5C20 9.32845 19.3604 10 18.5714 10H1.42857C0.6396 10 0 9.32845 0 8.5Z" fill="white"/>
<path fill-rule="evenodd" clip-rule="evenodd" d="M8.5 15.5C8.5 14.6716 9.1436 14 9.9375 14H18.5625C19.3564 14 20 14.6716 20 15.5C20 16.3284 19.3564 17 18.5625 17H9.9375C9.1436 17 8.5 16.3284 8.5 15.5Z" fill="white"/>
</svg>
