<svg width="33" height="48" viewBox="0 0 33 48" fill="none" xmlns="http://www.w3.org/2000/svg">
<path d="M27.5005 48H5.50049C4.0418 48 2.64285 47.4165 1.6114 46.3778C0.579951 45.3392 0.000488281 43.9304 0.000488281 42.4615V5.53846C0.000488281 4.06957 0.579951 2.66084 1.6114 1.62218C2.64285 0.583515 4.0418 0 5.50049 0H27.5005C28.9592 0 30.3581 0.583515 31.3896 1.62218C32.421 2.66084 33.0005 4.06957 33.0005 5.53846V42.4615C33.0005 43.9304 32.421 45.3392 31.3896 46.3778C30.3581 47.4165 28.9592 48 27.5005 48ZM5.50049 3.69231C5.01426 3.69231 4.54794 3.88681 4.20413 4.23303C3.86031 4.57926 3.66716 5.04883 3.66716 5.53846V42.4615C3.66716 42.9512 3.86031 43.4207 4.20413 43.767C4.54794 44.1132 5.01426 44.3077 5.50049 44.3077H27.5005C27.9867 44.3077 28.453 44.1132 28.7969 43.767C29.1407 43.4207 29.3338 42.9512 29.3338 42.4615V5.53846C29.3338 5.04883 29.1407 4.57926 28.7969 4.23303C28.453 3.88681 27.9867 3.69231 27.5005 3.69231H5.50049Z" fill="white"/>
</svg>
