<svg width="26" height="26" viewBox="0 0 26 26" fill="none" xmlns="http://www.w3.org/2000/svg">
<g clip-path="url(#clip0_191_2645)">
<path fill-rule="evenodd" clip-rule="evenodd" d="M21.1685 0C22.6375 0 23.8335 1.196 23.8335 2.678V26L21.0385 23.53L19.4655 22.074L17.8015 20.527L18.4905 22.932H3.7485C2.2795 22.932 1.0835 21.736 1.0835 20.254V2.678C1.0835 1.196 2.2795 0 3.7485 0H21.1685V0ZM16.1505 16.978C19.0235 16.887 20.1285 15.002 20.1285 15.002C20.1285 10.816 18.2565 7.423 18.2565 7.423C16.3845 6.019 14.6035 6.058 14.6035 6.058L14.4215 6.266C16.6315 6.942 17.6585 7.917 17.6585 7.917C16.3065 7.176 14.9805 6.812 13.7455 6.669C12.8095 6.565 11.9125 6.591 11.1195 6.695L10.8985 6.721C10.4435 6.76 9.3385 6.929 7.9475 7.54C7.4665 7.761 7.1805 7.917 7.1805 7.917C7.1805 7.917 8.2595 6.89 10.5995 6.214L10.4695 6.058C10.4695 6.058 8.6885 6.019 6.8165 7.423C6.8165 7.423 4.9445 10.816 4.9445 15.002C4.9445 15.002 6.0365 16.887 8.9095 16.978C8.9095 16.978 9.3905 16.393 9.7805 15.899C8.1295 15.405 7.5055 14.365 7.5055 14.365L7.8695 14.586L7.9215 14.625L7.97241 14.6543L7.98758 14.6608L8.0385 14.69C8.3635 14.872 8.6885 15.015 8.9875 15.132C9.5205 15.34 10.1575 15.548 10.8985 15.691C11.8735 15.873 13.0175 15.938 14.2655 15.704C14.8765 15.6 15.5005 15.418 16.1505 15.145C16.6055 14.976 17.1125 14.729 17.6455 14.378C17.6455 14.378 16.9955 15.444 15.2925 15.925C15.6825 16.419 16.1505 16.978 16.1505 16.978ZM10.1055 10.907C9.3645 10.907 8.7795 11.557 8.7795 12.35C8.7795 13.143 9.3775 13.793 10.1055 13.793C10.8465 13.793 11.4315 13.143 11.4315 12.35C11.4445 11.557 10.8465 10.907 10.1055 10.907ZM14.8505 10.907C14.1095 10.907 13.5245 11.557 13.5245 12.35C13.5245 13.143 14.1225 13.793 14.8505 13.793C15.5915 13.793 16.1765 13.143 16.1765 12.35C16.1765 11.557 15.5915 10.907 14.8505 10.907Z" fill="white"/>
</g>
<defs>
<clipPath id="clip0_191_2645">
<rect width="26" height="26" fill="white"/>
</clipPath>
</defs>
</svg>
