<svg width="18" height="14" viewBox="0 0 18 14" fill="none" xmlns="http://www.w3.org/2000/svg">
<path d="M15 0.25H3C1.35 0.25 0 1.6 0 3.25V10.75C0 12.4 1.35 13.75 3 13.75H15C16.65 13.75 18 12.4 18 10.75V3.25C18 1.6 16.65 0.25 15 0.25ZM16.2 4.6L10.275 8.575C9.9 8.8 9.45 8.95 9 8.95C8.55 8.95 8.1 8.8 7.725 8.575L1.8 4.6C1.5 4.375 1.425 3.925 1.65 3.55C1.875 3.25 2.325 3.175 2.7 3.4L8.625 7.375C8.85 7.525 9.225 7.525 9.45 7.375L15.375 3.4C15.75 3.175 16.2 3.25 16.425 3.625C16.575 3.925 16.5 4.375 16.2 4.6Z" fill="#49ABFF"/>
</svg>
