<svg width="170" height="50" viewBox="0 0 170 50" fill="none" xmlns="http://www.w3.org/2000/svg">
<path fill-rule="evenodd" clip-rule="evenodd" d="M163.072 1.00062C165.969 1.00062 168.341 3.36035 168.341 6.25V43.75C168.341 46.6397 165.985 48.9994 163.072 48.9994H6.43778C3.54038 48.9994 1.16892 46.6397 1.16892 43.75V6.25C1.16892 3.36035 3.52481 1.00062 6.43778 1.00062H163.072ZM163.072 0H6.43778C2.9833 0 0.169922 2.81796 0.169922 6.25V43.75C0.169922 47.1945 2.9833 50 6.43778 50H163.072C166.523 50 169.34 47.1945 169.34 43.75V6.25C169.34 2.81796 166.523 0 163.072 0Z" fill="white"/>
<path d="M62.4559 18.3333L61.0317 12.3681H62.2646L63.1639 16.4656L64.2544 12.3681H65.6867L66.7324 16.5347L67.6479 12.3681H68.8605L67.4119 18.3333H66.1343L64.9461 13.8736L63.762 18.3333H62.4559Z" fill="white"/>
<path d="M69.8123 18.3333V12.3681H74.2354V13.3772H71.0168V14.6996H74.0116V15.7047H71.0168V17.3282H74.3493V18.3333H69.8123Z" fill="white"/>
<path d="M78.3525 12.3681H80.5539C81.0503 12.3681 81.4287 12.4061 81.6891 12.482C82.0391 12.5851 82.3388 12.7682 82.5884 13.0313C82.8379 13.2945 83.0278 13.6173 83.158 13.9998C83.2882 14.3795 83.3534 14.8488 83.3534 15.4076C83.3534 15.8986 83.2923 16.3218 83.1702 16.6772C83.0211 17.1112 82.8081 17.4625 82.5314 17.731C82.3225 17.9345 82.0404 18.0932 81.6851 18.2071C81.4192 18.2912 81.0639 18.3333 80.619 18.3333H78.3525V12.3681ZM79.557 13.3772V17.3282H80.4562C80.7926 17.3282 81.0354 17.3092 81.1846 17.2712C81.3799 17.2224 81.5413 17.1397 81.6688 17.023C81.799 16.9064 81.9048 16.7151 81.9862 16.4493C82.0675 16.1807 82.1082 15.8159 82.1082 15.3547C82.1082 14.8936 82.0675 14.5396 81.9862 14.2927C81.9048 14.0459 81.7909 13.8533 81.6444 13.7149C81.4979 13.5766 81.3121 13.483 81.0869 13.4342C80.9187 13.3962 80.5891 13.3772 80.0981 13.3772H79.557Z" fill="white"/>
<path d="M84.7121 18.3333V12.3681H89.1351V13.3772H85.9165V14.6996H88.9113V15.7047H85.9165V17.3282H89.249V18.3333H84.7121Z" fill="white"/>
<path d="M92.1255 18.3333L89.9933 12.3681H91.2995L92.8091 16.783L94.2699 12.3681H95.5475L93.4113 18.3333H92.1255Z" fill="white"/>
<path d="M96.4953 18.3333V12.3681H100.918V13.3772H97.6997V14.6996H100.694V15.7047H97.6997V17.3282H101.032V18.3333H96.4953Z" fill="white"/>
<path d="M102.419 18.3333V12.4169H103.624V17.3282H106.619V18.3333H102.419Z" fill="white"/>
<path d="M107.57 15.3873C107.57 14.7796 107.661 14.2697 107.843 13.8573C107.979 13.5535 108.163 13.2809 108.396 13.0395C108.632 12.798 108.89 12.619 109.17 12.5024C109.541 12.345 109.97 12.2664 110.455 12.2664C111.334 12.2664 112.037 12.539 112.563 13.0842C113.092 13.6295 113.357 14.3877 113.357 15.3588C113.357 16.3218 113.095 17.0759 112.571 17.6212C112.048 18.1637 111.348 18.435 110.472 18.435C109.585 18.435 108.879 18.1651 108.356 17.6252C107.832 17.0827 107.57 16.3367 107.57 15.3873ZM108.812 15.3466C108.812 16.0221 108.968 16.5347 109.279 16.8847C109.591 17.2319 109.987 17.4055 110.468 17.4055C110.948 17.4055 111.341 17.2333 111.648 16.8888C111.957 16.5415 112.111 16.0221 112.111 15.3303C112.111 14.6467 111.961 14.1367 111.66 13.8004C111.361 13.464 110.964 13.2958 110.468 13.2958C109.971 13.2958 109.571 13.4667 109.267 13.8085C108.963 14.1476 108.812 14.6603 108.812 15.3466Z" fill="white"/>
<path d="M114.634 18.3333V12.3681H116.567C117.299 12.3681 117.777 12.3979 117.999 12.4576C118.341 12.5471 118.627 12.7424 118.858 13.0435C119.088 13.3419 119.203 13.7285 119.203 14.2032C119.203 14.5694 119.137 14.8773 119.004 15.1269C118.871 15.3764 118.702 15.5731 118.495 15.7169C118.292 15.8579 118.084 15.9515 117.873 15.9976C117.585 16.0546 117.169 16.0831 116.624 16.0831H115.838V18.3333H114.634ZM115.838 13.3772V15.0699H116.498C116.972 15.0699 117.29 15.0387 117.45 14.9763C117.61 14.9139 117.735 14.8163 117.824 14.6833C117.916 14.5504 117.962 14.3958 117.962 14.2195C117.962 14.0025 117.899 13.8234 117.771 13.6824C117.644 13.5413 117.482 13.4532 117.287 13.4179C117.143 13.3908 116.854 13.3772 116.42 13.3772H115.838Z" fill="white"/>
<path d="M123.032 18.3333V12.3681H127.121V13.3772H124.236V14.7891H126.726V15.7983H124.236V18.3333H123.032Z" fill="white"/>
<path d="M128.207 15.3873C128.207 14.7796 128.298 14.2697 128.48 13.8573C128.615 13.5535 128.8 13.2809 129.033 13.0395C129.269 12.798 129.527 12.619 129.806 12.5024C130.178 12.345 130.607 12.2664 131.092 12.2664C131.971 12.2664 132.674 12.539 133.2 13.0842C133.729 13.6295 133.993 14.3877 133.993 15.3588C133.993 16.3218 133.732 17.0759 133.208 17.6212C132.684 18.1637 131.985 18.435 131.108 18.435C130.221 18.435 129.516 18.1651 128.993 17.6252C128.469 17.0827 128.207 16.3367 128.207 15.3873ZM129.448 15.3466C129.448 16.0221 129.604 16.5347 129.916 16.8847C130.228 17.2319 130.624 17.4055 131.104 17.4055C131.584 17.4055 131.978 17.2333 132.284 16.8888C132.594 16.5415 132.748 16.0221 132.748 15.3303C132.748 14.6467 132.598 14.1367 132.297 13.8004C131.998 13.464 131.601 13.2958 131.104 13.2958C130.608 13.2958 130.208 13.4667 129.904 13.8085C129.6 14.1476 129.448 14.6603 129.448 15.3466Z" fill="white"/>
<path d="M135.275 18.3333V12.3681H137.81C138.447 12.3681 138.91 12.4223 139.197 12.5308C139.488 12.6366 139.719 12.8265 139.893 13.1005C140.067 13.3745 140.153 13.6878 140.153 14.0404C140.153 14.488 140.022 14.8583 139.759 15.1513C139.496 15.4415 139.102 15.6246 138.579 15.7006C138.839 15.8525 139.053 16.0193 139.222 16.2011C139.393 16.3828 139.622 16.7056 139.909 17.1695L140.638 18.3333H139.197L138.326 17.0352C138.017 16.5714 137.806 16.2798 137.692 16.1604C137.578 16.0383 137.457 15.9556 137.33 15.9122C137.202 15.8661 137 15.843 136.723 15.843H136.479V18.3333H135.275ZM136.479 14.8909H137.37C137.948 14.8909 138.309 14.8665 138.453 14.8176C138.596 14.7688 138.709 14.6847 138.79 14.5653C138.872 14.446 138.912 14.2968 138.912 14.1178C138.912 13.917 138.858 13.7556 138.75 13.6335C138.644 13.5088 138.493 13.4301 138.298 13.3975C138.2 13.384 137.907 13.3772 137.419 13.3772H136.479V14.8909Z" fill="white"/>
<path fill-rule="evenodd" clip-rule="evenodd" d="M84.6949 27.6806C82.1815 27.6806 80.1441 29.5908 80.1441 32.2256C80.1441 34.8364 82.1948 36.7705 84.6949 36.7705C87.2084 36.7705 89.2457 34.847 89.2457 32.2256C89.2457 29.5908 87.2084 27.6806 84.6949 27.6806ZM84.6949 34.9696C83.3198 34.9696 82.1362 33.8293 82.1362 32.2149C82.1362 30.5765 83.3225 29.4602 84.6949 29.4602C86.07 29.4602 87.2536 30.5765 87.2536 32.2149C87.2562 33.84 86.07 34.9696 84.6949 34.9696ZM74.7661 27.6806C72.2527 27.6806 70.2153 29.5908 70.2153 32.2256C70.2153 34.8364 72.266 36.7705 74.7661 36.7705C77.2796 36.7705 79.3169 34.847 79.3169 32.2256C79.3169 29.5908 77.2769 27.6806 74.7661 27.6806ZM74.7661 34.9696C73.391 34.9696 72.2075 33.8293 72.2075 32.2149C72.2075 30.5765 73.3937 29.4602 74.7661 29.4602C76.1412 29.4602 77.3248 30.5765 77.3248 32.2149C77.3248 33.84 76.1412 34.9696 74.7661 34.9696ZM62.9516 29.0686V30.9921H67.5609C67.4199 32.071 67.0635 32.8676 66.5183 33.4137C65.8427 34.0904 64.8001 34.8257 62.9622 34.8257C60.1296 34.8257 57.9141 32.5346 57.9141 29.6973C57.9141 26.86 60.1296 24.5689 62.9622 24.5689C64.4916 24.5689 65.606 25.1737 66.4332 25.9463L67.795 24.5822C66.646 23.4793 65.1166 22.6348 62.9729 22.6348C59.087 22.6348 55.8262 25.8051 55.8262 29.6867C55.8262 33.5789 59.0843 36.7386 62.9729 36.7386C65.0714 36.7386 66.646 36.0512 67.8907 34.7565C69.1594 33.4857 69.561 31.6927 69.561 30.2461C69.561 29.7959 69.5265 29.3909 69.4546 29.0473H62.9489C62.9516 29.0446 62.9516 29.0686 62.9516 29.0686ZM111.276 30.5658C110.896 29.5455 109.747 27.6699 107.39 27.6699C105.055 27.6699 103.114 29.5108 103.114 32.2149C103.114 34.7671 105.034 36.7599 107.616 36.7599C109.691 36.7599 110.899 35.4891 111.396 34.7431L109.856 33.7095C109.345 34.4687 108.635 34.9669 107.627 34.9669C106.608 34.9669 105.896 34.5034 105.422 33.5896L111.489 31.072C111.489 31.0747 111.276 30.5658 111.276 30.5658ZM105.09 32.0844C105.042 30.3287 106.452 29.4362 107.46 29.4362C108.255 29.4362 108.917 29.8279 109.143 30.398L105.09 32.0844ZM100.161 36.4881H102.153V23.1356H100.161V36.4881ZM96.8898 28.6903H96.818C96.3685 28.1548 95.5147 27.6699 94.4242 27.6699C92.1608 27.6699 90.0755 29.6653 90.0755 32.2282C90.0755 34.7804 92.1501 36.7519 94.4242 36.7519C95.5014 36.7519 96.3685 36.2643 96.818 35.7182H96.8898V36.3709C96.8898 38.1052 95.9642 39.0403 94.4721 39.0403C93.2513 39.0403 92.4932 38.1612 92.1847 37.4259L90.4532 38.1505C90.9506 39.3494 92.2778 40.8333 94.4694 40.8333C96.8047 40.8333 98.7835 39.4559 98.7835 36.0965V27.9417H96.9004V28.6903C96.9031 28.6903 96.8898 28.6903 96.8898 28.6903ZM94.6024 34.9696C93.2273 34.9696 92.0783 33.8187 92.0783 32.2282C92.0783 30.6244 93.2273 29.4629 94.6024 29.4629C95.9642 29.4629 97.0201 30.6377 97.0201 32.2282C97.0334 33.8187 95.9668 34.9696 94.6024 34.9696ZM120.604 23.1356H115.84V36.4881H117.833V31.4317H120.607C122.812 31.4317 124.979 29.8305 124.979 27.289C124.979 24.7474 122.819 23.1356 120.604 23.1356ZM120.662 29.5668H117.83V24.9845H120.662C122.155 24.9845 122.998 26.218 122.998 27.2756C122.998 28.3226 122.144 29.5668 120.662 29.5668ZM132.964 27.6566C131.517 27.6566 130.025 28.2987 129.408 29.6973L131.174 30.4326C131.554 29.6973 132.251 29.4469 132.988 29.4469C134.02 29.4469 135.062 30.065 135.086 31.1679V31.3091C134.73 31.1066 133.948 30.7976 133.012 30.7976C131.105 30.7976 129.171 31.8419 129.171 33.8C129.171 35.593 130.735 36.7439 132.477 36.7439C133.815 36.7439 134.552 36.1391 135.012 35.4385H135.084V36.4721H137.004V31.3571C137.004 28.9753 135.238 27.6566 132.964 27.6566ZM132.714 34.9696C132.062 34.9696 131.15 34.6499 131.15 33.8293C131.15 32.7957 132.288 32.404 133.259 32.404C134.137 32.404 134.552 32.5932 135.073 32.8543C134.929 34.0531 133.919 34.9589 132.714 34.9696ZM144.01 27.9417L141.722 33.7334H141.65L139.281 27.9417H137.137L140.693 36.0379L138.666 40.5376H140.741L146.212 27.9417H144.01ZM126.078 36.4881H128.07V23.1356H126.078V36.4881Z" fill="white"/>
<path fill-rule="evenodd" clip-rule="evenodd" d="M23.1567 12.4872C22.8481 12.8202 22.6699 13.3291 22.6699 13.9951V37.6177C22.6699 38.2838 22.8481 38.7926 23.1673 39.1123L23.2497 39.1842L36.4633 25.9489V25.6532L23.2391 12.4153L23.1567 12.4872Z" fill="url(#paint0_linear_174_156)"/>
<path fill-rule="evenodd" clip-rule="evenodd" d="M40.8598 30.374L36.4526 25.9595V25.6505L40.8598 21.2361L40.9556 21.2947L46.1686 24.2625C47.6608 25.1044 47.6608 26.495 46.1686 27.3475L40.9556 30.3154L40.8598 30.374Z" fill="url(#paint1_linear_174_156)"/>
<path fill-rule="evenodd" clip-rule="evenodd" d="M40.9557 30.3155L36.4527 25.8052L23.1567 39.1231C23.6435 39.6452 24.46 39.7038 25.3723 39.195L40.9557 30.3155Z" fill="url(#paint2_linear_174_156)"/>
<path fill-rule="evenodd" clip-rule="evenodd" d="M40.9557 21.2947L25.3723 12.4286C24.46 11.9064 23.6408 11.9783 23.1567 12.5005L36.4527 25.805L40.9557 21.2947Z" fill="url(#paint3_linear_174_156)"/>
<path opacity="0.2" fill-rule="evenodd" clip-rule="evenodd" d="M40.86 30.2195L25.383 39.027C24.5186 39.5252 23.7473 39.4906 23.2499 39.0377L23.1675 39.1203L23.2499 39.1922C23.7473 39.6425 24.5186 39.6798 25.383 39.1816L40.9664 30.3154L40.86 30.2195Z" fill="black"/>
<path opacity="0.12" fill-rule="evenodd" clip-rule="evenodd" d="M46.1688 27.1932L40.8467 30.2196L40.9424 30.3155L46.1555 27.3477C46.9029 26.9214 47.2699 26.362 47.2699 25.8052C47.2247 26.3167 46.8444 26.8016 46.1688 27.1932Z" fill="black"/>
<path opacity="0.25" fill-rule="evenodd" clip-rule="evenodd" d="M25.3722 12.5831L46.1686 24.4171C46.8442 24.798 47.2245 25.2962 47.2831 25.8051C47.2831 25.2483 46.916 24.6888 46.1686 24.2625L25.3722 12.4286C23.8801 11.5734 22.6699 12.2874 22.6699 13.9951V14.1496C22.6699 12.4392 23.8801 11.7386 25.3722 12.5831Z" fill="white"/>
<defs>
<linearGradient id="paint0_linear_174_156" x1="35.278" y1="13.7402" x2="14.1076" y2="19.3718" gradientUnits="userSpaceOnUse">
<stop stop-color="#00A0FF"/>
<stop offset="0.00657" stop-color="#00A1FF"/>
<stop offset="0.2601" stop-color="#00BEFF"/>
<stop offset="0.5122" stop-color="#00D2FF"/>
<stop offset="0.7604" stop-color="#00DFFF"/>
<stop offset="1" stop-color="#00E3FF"/>
</linearGradient>
<linearGradient id="paint1_linear_174_156" x1="48.1145" y1="25.8051" x2="22.3072" y2="25.8051" gradientUnits="userSpaceOnUse">
<stop stop-color="#FFE000"/>
<stop offset="0.4087" stop-color="#FFBD00"/>
<stop offset="0.7754" stop-color="#FFA500"/>
<stop offset="1" stop-color="#FF9C00"/>
</linearGradient>
<linearGradient id="paint2_linear_174_156" x1="38.5071" y1="28.2594" x2="21.474" y2="56.8805" gradientUnits="userSpaceOnUse">
<stop stop-color="#FF3A44"/>
<stop offset="1" stop-color="#C31162"/>
</linearGradient>
<linearGradient id="paint3_linear_174_156" x1="19.8087" y1="4.6299" x2="27.4078" y2="17.4125" gradientUnits="userSpaceOnUse">
<stop stop-color="#32A071"/>
<stop offset="0.0685" stop-color="#2DA771"/>
<stop offset="0.4762" stop-color="#15CF74"/>
<stop offset="0.8009" stop-color="#06E775"/>
<stop offset="1" stop-color="#00F076"/>
</linearGradient>
</defs>
</svg>
