<svg width="162" height="41" viewBox="0 0 162 41" fill="none" xmlns="http://www.w3.org/2000/svg">
<g clip-path="url(#clip0_191_4712)">
<path d="M70.2433 19.6028V30.5398H66.1973V28.2688C65.1679 29.8767 63.1806 30.785 60.4402 30.785C56.2561 30.785 53.6182 28.446 53.6182 25.1939C53.6182 22.0827 55.6768 19.6392 61.2289 19.6392H65.9611V19.3576C65.9611 16.805 64.455 15.3062 61.4027 15.3062C59.344 15.3062 57.2186 16.0056 55.8506 17.1593L54.1707 13.9799C56.1269 12.4447 58.9697 11.6726 61.9196 11.6726C67.1909 11.6681 70.2433 14.2206 70.2433 19.6028ZM65.9566 24.7034V22.5369H61.5364C58.6222 22.5369 57.8335 23.6542 57.8335 25.0168C57.8335 26.5883 59.1346 27.6012 61.3314 27.6012C63.4212 27.6012 65.2392 26.6246 65.9566 24.7034Z" fill="white"/>
<path d="M95.1609 21.2107C95.1609 27.0107 91.2174 30.7851 85.8703 30.7851C83.5398 30.7851 81.4812 29.9811 80.0107 28.2688V37.3209H75.7241V11.8815H79.8013V14.3296C81.2406 12.5492 83.3661 11.6726 85.8703 11.6726C91.2219 11.6681 95.1609 15.4424 95.1609 21.2107ZM90.8075 21.2107C90.8075 17.6452 88.477 15.3743 85.3935 15.3743C82.31 15.3743 79.9439 17.6452 79.9439 21.2107C79.9439 24.7761 82.31 27.047 85.3935 27.047C88.477 27.0425 90.8075 24.7715 90.8075 21.2107Z" fill="white"/>
<path d="M118.675 21.2107C118.675 27.0107 114.731 30.7851 109.384 30.7851C107.053 30.7851 104.995 29.9811 103.524 28.2688V37.3209H99.2378V11.8815H103.315V14.3296C104.754 12.5492 106.88 11.6726 109.384 11.6726C114.731 11.6681 118.675 15.4424 118.675 21.2107ZM114.321 21.2107C114.321 17.6452 111.991 15.3743 108.907 15.3743C105.824 15.3743 103.458 17.6452 103.458 21.2107C103.458 24.7761 105.824 27.047 108.907 27.047C111.991 27.0425 114.321 24.7715 114.321 21.2107Z" fill="white"/>
<path d="M139.889 22.6052H125.528C126.04 25.3303 128.268 27.079 131.459 27.079C133.517 27.079 135.126 26.4159 136.431 25.0533L138.726 27.7421C137.082 29.736 134.511 30.7806 131.356 30.7806C125.22 30.7806 121.246 26.761 121.246 21.2063C121.246 15.6515 125.256 11.6682 130.706 11.6682C136.053 11.6682 139.961 15.4789 139.961 21.3107C139.961 21.665 139.925 22.1873 139.889 22.6052ZM125.492 19.7074H135.879C135.536 17.0186 133.513 15.1655 130.701 15.1655C127.925 15.1655 125.907 16.9823 125.492 19.7074Z" fill="white"/>
<path d="M162 4.61011V30.5354H157.887V28.1237C156.448 29.9041 154.322 30.7807 151.818 30.7807C146.502 30.7807 142.563 27.0064 142.563 21.2063C142.563 15.4063 146.506 11.6683 151.818 11.6683C154.184 11.6683 156.274 12.4722 157.713 14.1845V4.61011H162ZM157.784 21.2109C157.784 17.6454 155.418 15.3745 152.335 15.3745C149.251 15.3745 146.885 17.6454 146.885 21.2109C146.885 24.7763 149.251 27.0472 152.335 27.0472C155.418 27.0427 157.784 24.7717 157.784 21.2109Z" fill="white"/>
<path d="M111.292 38.0434H109.719L109.407 38.7838H108.805L110.222 35.5771H110.797L112.214 38.7838H111.603L111.292 38.0434ZM111.1 37.5756L110.507 36.1721L109.919 37.5756H111.1Z" fill="white"/>
<path d="M115.618 36.7172C115.618 37.4212 115.106 37.8572 114.277 37.8572H113.569V38.7838H112.985V35.5771H114.277C115.106 35.5771 115.618 36.0086 115.618 36.7172ZM115.03 36.7172C115.03 36.3129 114.763 36.0813 114.255 36.0813H113.573V37.353H114.255C114.763 37.353 115.03 37.1214 115.03 36.7172Z" fill="white"/>
<path d="M119.201 36.7172C119.201 37.4212 118.688 37.8572 117.86 37.8572H117.151V38.7838H116.567V35.5771H117.86C118.688 35.5771 119.201 36.0086 119.201 36.7172ZM118.613 36.7172C118.613 36.3129 118.345 36.0813 117.837 36.0813H117.156V37.353H117.837C118.345 37.353 118.613 37.1214 118.613 36.7172Z" fill="white"/>
<path d="M122.605 35.5771H123.977C124.998 35.5771 125.693 36.2176 125.693 37.1804C125.693 38.1433 124.998 38.7838 123.977 38.7838H122.605V35.5771ZM123.955 38.2796C124.655 38.2796 125.109 37.8436 125.109 37.1804C125.109 36.5173 124.655 36.0813 123.955 36.0813H123.193V38.2796H123.955Z" fill="white"/>
<path d="M129.044 38.2841V38.7838H126.683V35.5771H128.977V36.0768H127.266V36.9079H128.786V37.3985H127.266V38.2841H129.044Z" fill="white"/>
<path d="M132.889 35.5771L131.521 38.7838H130.947L129.574 35.5771H130.207L131.254 38.048L132.31 35.5771H132.889Z" fill="white"/>
<path d="M135.946 38.2841V38.7838H133.589V35.5771H135.884V36.0768H134.173V36.9079H135.692V37.3985H134.173V38.2841H135.946Z" fill="white"/>
<path d="M136.967 35.5771H137.551V38.2796H139.195V38.7838H136.967V35.5771Z" fill="white"/>
<path d="M139.738 37.1805C139.738 36.2312 140.456 35.5317 141.432 35.5317C142.407 35.5317 143.125 36.2267 143.125 37.1805C143.125 38.1343 142.407 38.8292 141.432 38.8292C140.456 38.8292 139.738 38.1297 139.738 37.1805ZM142.537 37.1805C142.537 36.5264 142.064 36.0541 141.432 36.0541C140.799 36.0541 140.326 36.5264 140.326 37.1805C140.326 37.8345 140.799 38.3069 141.432 38.3069C142.064 38.3069 142.537 37.8345 142.537 37.1805Z" fill="white"/>
<path d="M146.743 36.7172C146.743 37.4212 146.231 37.8572 145.402 37.8572H144.694V38.7838H144.11V35.5771H145.402C146.235 35.5771 146.743 36.0086 146.743 36.7172ZM146.155 36.7172C146.155 36.3129 145.888 36.0813 145.38 36.0813H144.698V37.353H145.38C145.892 37.353 146.155 37.1214 146.155 36.7172Z" fill="white"/>
<path d="M150.584 38.7838L150.58 36.6581L149.546 38.4159H149.288L148.254 36.6854V38.7838H147.697V35.5771H148.178L149.426 37.7028L150.651 35.5771H151.132L151.137 38.7838H150.584Z" fill="white"/>
<path d="M154.711 38.2841V38.7838H152.354V35.5771H154.648V36.0768H152.937V36.9079H154.457V37.3985H152.937V38.2841H154.711Z" fill="white"/>
<path d="M158.525 35.5771V38.7838H158.044L156.31 36.6127V38.7838H155.731V35.5771H156.212L157.946 37.7482V35.5771H158.525Z" fill="white"/>
<path d="M160.374 36.0813H159.331V35.5771H162V36.0813H160.957V38.7838H160.374V36.0813Z" fill="white"/>
<path opacity="0.5" d="M42.5632 30.2993C44.0827 23.5137 41.32 14.9203 34.8277 8.29819C33.8741 7.32622 32.876 6.44054 31.8467 5.63208L42.5632 30.2993Z" fill="white"/>
<path opacity="0.5" d="M28.4778 23.9497L23.2242 10.6282L17.9707 23.9497H28.4778Z" fill="white"/>
<path opacity="0.5" d="M17.2267 0.00017484C13.1495 -0.0543283 9.41547 1.24921 6.69735 4.01978C1.58194 9.23392 1.5552 18.0998 5.93984 26.0618L17.2267 0.00017484Z" fill="white"/>
<path opacity="0.5" d="M31.8602 32.6338H14.5889L13.5908 35.1409C20.4173 40.6367 28.6385 42.3944 34.7253 39.8646L31.8602 32.6338Z" fill="white"/>
<path opacity="0.5" d="M40.206 24.8761C44.0471 17.2184 43.8555 8.94758 39.0252 4.01959C36.5254 1.47611 33.1523 0.195285 29.436 0.0908203L40.206 24.8761Z" fill="white"/>
<path opacity="0.5" d="M28.4778 23.9497L23.2243 10.6282L17.9707 23.9497H28.4778Z" fill="white"/>
<path opacity="0.5" d="M15.0745 4.97339C13.6708 5.9817 12.3162 7.13535 11.0329 8.44342C4.13513 15.4743 1.41255 24.6944 3.54249 31.5982L15.0745 4.97339Z" fill="white"/>
<path opacity="0.5" d="M31.8598 32.6338H14.5886L11.6343 40.078C17.7835 42.2218 25.9156 40.1779 32.5995 34.496L31.8598 32.6338Z" fill="white"/>
<path opacity="0.5" d="M28.4778 23.9497L23.2243 10.6282L17.9707 23.9497H28.4778Z" fill="white"/>
<path opacity="0.5" d="M42.3355 29.7771C44.4833 27.0792 45.722 23.9044 45.722 20.5025C45.722 12.9811 39.6664 6.55877 31.1333 3.98804L42.3355 29.7771Z" fill="white"/>
<path opacity="0.5" d="M15.627 3.69727C6.54577 6.0409 0 12.6767 0 20.4979C0 24.2177 1.48383 27.665 4.01034 30.5174L15.627 3.69727Z" fill="white"/>
<path opacity="0.5" d="M31.8602 32.6338H14.589L13.0562 36.499C16.0283 37.5936 19.3524 38.2113 22.8637 38.2113C26.6245 38.2113 30.1714 37.5027 33.2995 36.2537L31.8602 32.6338Z" fill="white"/>
</g>
<defs>
<clipPath id="clip0_191_4712">
<rect width="162" height="41" fill="white"/>
</clipPath>
</defs>
</svg>
