<svg width="116" height="215" viewBox="0 0 116 215" fill="none" xmlns="http://www.w3.org/2000/svg">
<path d="M58.5073 0C76.3188 0 90.2974 4.16274 100.443 12.4882C110.814 20.8137 116 32.4019 116 47.2528C116 59.6285 112.956 70.7666 106.869 80.6672C101.007 90.3427 90.861 100.131 76.4315 110.031V142.096H21.3061V95.8556C35.0593 88.8802 44.7541 82.9173 50.3907 77.967C56.2527 73.0167 59.1837 68.2915 59.1837 63.7912C59.1837 60.191 58.1691 57.6033 56.1399 56.0283C54.1108 54.2281 50.8416 53.3281 46.3324 53.3281C40.2449 53.3281 32.5792 54.2281 23.3353 56.0283C14.0914 57.6033 6.31293 59.4035 0 61.4286V9.45054C9.24393 6.07535 18.2624 3.71271 27.0554 2.36263C35.8484 0.787542 46.3324 0 58.5073 0ZM80.1516 161.672V215H17.586V161.672H80.1516Z" fill="#96CFFF"/>
</svg>
