<svg width="11" height="10" viewBox="0 0 11 10" fill="none" xmlns="http://www.w3.org/2000/svg">
<path d="M10.9205 3.8356C10.856 3.63403 10.6759 3.48922 10.4626 3.46965L7.57613 3.20937L6.43523 0.536184C6.35108 0.340489 6.1593 0.213287 5.94599 0.213287C5.73269 0.213287 5.5409 0.340489 5.45676 0.536184L4.31586 3.20937L1.42936 3.46965C1.21801 3.48922 1.03798 3.63207 0.971439 3.8356C0.904903 4.03716 0.965568 4.26025 1.12604 4.40115L3.30803 6.31505L2.66615 9.14871C2.61919 9.35614 2.69942 9.57337 2.87359 9.69665C2.96557 9.76319 3.07515 9.79842 3.18474 9.79842C3.27868 9.79842 3.37261 9.77297 3.45676 9.72209L5.94599 8.23481L8.43523 9.72209C8.61722 9.83168 8.84618 9.8219 9.02035 9.69665C9.19256 9.57141 9.27476 9.35614 9.22779 9.14871L8.58395 6.31505L10.7659 4.40115C10.9245 4.26025 10.9851 4.03912 10.9205 3.8356Z" fill="#FFC600"/>
</svg>
