<svg width="19" height="21" viewBox="0 0 19 21" fill="none" xmlns="http://www.w3.org/2000/svg">
<path d="M13.0762 1.05896H5.38542C4.84158 1.05896 4.46927 1.60896 4.67158 2.11357L5.38465 4.13588H13.077L13.79 2.11357C13.9923 1.60896 13.62 1.05896 13.0762 1.05896Z" fill="#054884"/>
<path d="M13.0769 5.67444H5.38461C5.38461 5.67444 0 10.2898 0 15.6744C0 18.7513 2.30769 20.2898 3.84615 20.2898C5.38461 20.2898 9.23076 20.2898 9.23076 20.2898C9.23076 20.2898 13.0769 20.2898 14.6154 20.2898C16.1538 20.2898 18.4615 18.7513 18.4615 15.6744C18.4615 10.2898 13.0769 5.67444 13.0769 5.67444ZM9.99999 16.3652V17.5975H8.46153V16.369C7.32999 16.1567 6.61846 15.4614 6.57692 14.4452H7.90922C7.97307 14.979 8.51153 15.3214 9.28768 15.3214C10.0038 15.3214 10.5108 14.9744 10.5108 14.4767C10.5108 14.0567 10.1823 13.8152 9.37461 13.6414L8.51692 13.459C7.31692 13.2083 6.72769 12.5829 6.72769 11.579C6.72769 10.569 7.39615 9.84905 8.46153 9.61213V8.36674H9.99999V9.60982C11.0385 9.84213 11.7323 10.5498 11.7661 11.506H10.47C10.4061 10.986 9.9223 10.639 9.25615 10.639C8.56692 10.639 8.11076 10.9583 8.11076 11.4606C8.11076 11.8667 8.42538 12.0998 9.19691 12.2637L9.99076 12.4329C11.3146 12.7114 11.8846 13.2821 11.8846 14.3037C11.8846 15.4037 11.1785 16.1414 9.99999 16.3652Z" fill="#054884"/>
<path d="M11.5382 2.59749H6.92285C6.92285 1.32287 7.95593 0.289795 9.23054 0.289795C10.5052 0.289795 11.5382 1.32287 11.5382 2.59749Z" fill="#054884"/>
</svg>
