<svg width="20" height="16" viewBox="0 0 20 16" fill="none" xmlns="http://www.w3.org/2000/svg">
<path d="M16.6667 0.789795H3.33333C1.5 0.789795 0 2.28979 0 4.12313V12.4565C0 14.2898 1.5 15.7898 3.33333 15.7898H16.6667C18.5 15.7898 20 14.2898 20 12.4565V4.12313C20 2.28979 18.5 0.789795 16.6667 0.789795ZM18 5.62313L11.4167 10.0398C11 10.2898 10.5 10.4565 10 10.4565C9.5 10.4565 9 10.2898 8.58333 10.0398L2 5.62313C1.66667 5.37313 1.58333 4.87313 1.83333 4.45646C2.08333 4.12313 2.58333 4.03979 3 4.28979L9.58333 8.70646C9.83333 8.87313 10.25 8.87313 10.5 8.70646L17.0833 4.28979C17.5 4.03979 18 4.12313 18.25 4.53979C18.4167 4.87313 18.3333 5.37313 18 5.62313Z" fill="#054A85"/>
</svg>
