<svg width="20" height="21" viewBox="0 0 20 21" fill="none" xmlns="http://www.w3.org/2000/svg">
<path d="M10 0.289795C4.5 0.289795 0 4.78979 0 10.2898C0 15.7898 4.5 20.2898 10 20.2898C15.5 20.2898 20 15.7898 20 10.2898C20 4.78979 15.5 0.289795 10 0.289795ZM10 3.62313C11.8333 3.62313 13.3333 5.45646 13.3333 7.78979C13.3333 10.1231 11.8333 11.9565 10 11.9565C8.16667 11.9565 6.66667 10.1231 6.66667 7.78979C6.66667 5.45646 8.16667 3.62313 10 3.62313ZM15.5 16.5398C14.0833 17.7898 12.0833 18.6231 10 18.6231C7.91667 18.6231 5.91667 17.7898 4.5 16.5398C4.16667 16.2065 4.08333 15.7065 4.41667 15.3731C5.33333 14.2898 6.58333 13.5398 7.91667 13.1231C8.58333 13.4565 9.25 13.6231 10 13.6231C10.75 13.6231 11.4167 13.4565 12.0833 13.1231C13.5 13.5398 14.6667 14.2898 15.5833 15.3731C15.9167 15.7065 15.9167 16.2065 15.5 16.5398Z" fill="#054A85"/>
</svg>
