<svg width="20" height="21" viewBox="0 0 20 21" fill="none" xmlns="http://www.w3.org/2000/svg">
<path d="M4.02778 8.95091C5.62778 12.0954 8.2 14.6676 11.35 16.2676L13.7944 13.8176C14.1 13.512 14.5389 13.4231 14.9222 13.5454C16.1667 13.9565 17.5056 14.1787 18.8889 14.1787C19.5056 14.1787 20 14.6731 20 15.2898V19.1787C20 19.7954 19.5056 20.2898 18.8889 20.2898C8.45555 20.2898 0 11.8342 0 1.40091C0 0.784239 0.5 0.289795 1.11111 0.289795H5C5.61667 0.289795 6.11111 0.784239 6.11111 1.40091C6.11111 2.78424 6.33333 4.12313 6.74444 5.36757C6.86667 5.75091 6.77778 6.1898 6.47222 6.49535L4.02778 8.95091Z" fill="#054884"/>
</svg>
